#!OML:ASF H:\ManfredETheater\Project 1\Capture day 1\Session 1\subject.ASF
:FULLY-SPECIFIED
:DEGREES
160
root 10.2703 16.4271 -30.222 -160.569 15.0408 -164.432
lowerback 14.0912 -2.28048 3.79097
upperback 1.38038 -1.6754 5.13852
thorax -6.41265 -0.681552 3.62738
lowerneck -6.12414 5.39391 4.02593
upperneck 3.59801 6.94288 -1.01691
head 2.38449 3.49322 -0.730742
rclavicle 4.21423e-014 -3.4191e-014
rhumerus -44.279 -0.873139 -67.9634
rradius 61.9094
rwrist -1.7874
rhand -26.8995 -6.37458
rfingers 7.12502
rthumb -0.323052 -36.3541
lclavicle 4.21423e-014 -3.4191e-014
lhumerus -34.8433 -1.87878 87.006
lradius 67.35
lwrist 2.24161
lhand -22.1766 4.69558
lfingers 7.12502
lthumb 4.23827 34.6332
rfemur -17.3896 -2.90318 7.14252
rtibia 98.3562
rfoot 16.8862 -12.7785
rtoes -2.49124
lfemur -42.2577 2.94542 -29.2639
ltibia 55.0976
lfoot -20.1176 -4.4856
ltoes 39.3433
161
root 10.3193 16.4695 -30.755 -160.671 14.5831 -165.1
lowerback 13.5138 -2.48302 3.49364
upperback 0.917413 -2.05467 5.09765
thorax -6.56212 -0.88013 3.817
lowerneck -6.64509 5.56647 4.13288
upperneck 4.77513 7.14086 -0.926219
head 2.88478 3.60244 -0.67859
rclavicle -2.22639e-014 1.51076e-014
rhumerus -44.3305 -0.0068665 -68.4449
rradius 63.4489
rwrist -1.69961
rhand -26.3941 -5.91725
rfingers 7.12502
rthumb 0.165138 -35.8969
lclavicle -2.22639e-014 1.51076e-014
lhumerus -34.1757 -2.44104 87.0934
lradius 69.0565
lwrist 2.709
lhand -22.4606 4.80757
lfingers 7.12502
lthumb 3.96403 34.7504
rfemur -20.8991 -3.5421 6.95264
rtibia 99.8336
rfoot 15.6359 -11.8781
rtoes -2.85568
lfemur -39.5846 2.99357 -30.1148
ltibia 53.9853
lfoot -20.6792 -4.81941
ltoes 39.0811
162
root 10.3657 16.5214 -31.288 -160.786 14.0477 -165.815
lowerback 12.9836 -2.70976 3.14563
upperback 0.471308 -2.46153 5.07642
thorax -6.71085 -1.08614 4.05978
lowerneck -7.27128 5.7393 4.23686
upperneck 5.92439 7.33993 -0.88947
head 3.40921 3.7111 -0.637035
rclavicle -5.82439e-014 -2.54444e-014
rhumerus -44.412 0.809527 -68.8511
rradius 65.0286
rwrist -1.39723
rhand -25.4985 -5.25732
rfingers 7.12502
rthumb 1.03009 -35.2346
lclavicle -5.82439e-014 -2.54444e-014
lhumerus -33.6467 -3.06508 87.2378
lradius 71.108
lwrist 3.93035
lhand -22.8879 4.90277
lfingers 7.12502
lthumb 3.55136 34.8529
rfemur -24.3287 -4.17165 6.91258
rtibia 100.802
rfoot 14.3878 -11.0405
rtoes -3.29267
lfemur -36.8582 3.00825 -30.9239
ltibia 52.7075
lfoot -20.765 -5.31645
ltoes 38.4025
163
root 10.4097 16.5813 -31.822 -160.906 13.4121 -166.547
lowerback 12.4815 -2.95721 2.79325
upperback 0.0524038 -2.88457 5.08262
thorax -6.83825 -1.29472 4.33411
lowerneck -7.9829 5.90123 4.33437
upperneck 7.0027 7.52715 -0.919264
head 3.94024 3.81013 -0.611978
rclavicle 6.36111e-015 3.4191e-014
rhumerus -44.5602 1.5387 -69.1571
rradius 66.6851
rwrist -0.945273
rhand -24.3674 -4.4475
rfingers 7.12502
rthumb 2.12256 -34.4167
lclavicle 6.36111e-015 3.4191e-014
lhumerus -33.1989 -3.78075 87.4369
lradius 73.3985
lwrist 5.66515
lhand -23.3257 4.92102
lfingers 7.12502
lthumb 3.12861 34.8778
rfemur -27.646 -4.7629 7.04306
rtibia 101.258
rfoot 13.1019 -10.3527
rtoes -3.9299
lfemur -34.1301 2.95733 -31.643
ltibia 51.3534
lfoot -20.3463 -5.99938
ltoes 37.2931
164
root 10.4513 16.6481 -32.3567 -161.015 12.6685 -167.275
lowerback 11.9979 -3.21853 2.4599
upperback -0.339379 -3.31139 5.12354
thorax -6.93986 -1.50061 4.63145
lowerneck -8.74766 6.046 4.4214
upperneck 7.97154 7.69706 -1.02654
head 4.45782 3.89429 -0.609529
rclavicle -4.8901e-014 -1.19271e-014
rhumerus -44.8003 2.16661 -69.3496
rradius 68.4296
rwrist -0.399586
rhand -23.1626 -3.55834
rfingers 7.12502
rthumb 3.28609 -33.5128
lclavicle -4.8901e-014 -1.19271e-014
lhumerus -32.8026 -4.59391 87.6877
lradius 75.8396
lwrist 7.63231
lhand -23.677 4.86951
lfingers 7.12502
lthumb 2.78934 34.831
rfemur -30.8383 -5.2922 7.34319
rtibia 101.208
rfoot 11.7652 -9.83683
rtoes -4.90592
lfemur -31.4686 2.83415 -32.2447
ltibia 50.0083
lfoot -19.3956 -6.88471
ltoes 35.7649
165
root 10.4908 16.7206 -32.8926 -161.125 11.8335 -167.997
lowerback 11.5386 -3.48053 2.14302
upperback -0.697089 -3.72625 5.19357
thorax -7.01259 -1.69688 4.94438
lowerneck -9.52657 6.15714 4.51398
upperneck 9.1968 7.8405 -1.30072
head 4.53861 3.94831 -0.588148
rclavicle 3.35946e-014 -2.62396e-014
rhumerus -45.1395 2.68263 -69.429
rradius 70.25
rwrist 0.184048
rhand -22.0528 -2.67603
rfingers 7.12502
rthumb 4.35781 -32.6112
lclavicle 3.35946e-014 -2.62396e-014
lhumerus -32.4348 -5.50246 87.9771
lradius 78.3486
lwrist 9.53346
lhand -23.8933 4.73586
lfingers 7.12502
lthumb 2.58042 34.7
rfemur -33.8744 -5.72062 7.76986
rtibia 100.659
rfoot 10.406 -9.47809
rtoes -6.24143
lfemur -28.8957 2.65892 -32.7359
ltibia 48.7238
lfoot -17.9116 -7.95352
ltoes 33.8268
